<svg width="423" height="278" viewBox="0 0 423 278" fill="none" xmlns="http://www.w3.org/2000/svg">
<g clip-path="url(#clip0_2091_15)">
<path d="M175 113L423 0V277H404.5V138H194V277H175V113Z" fill="#EF7A1B"/>
<path d="M175 137.182L0 57V277.5H30.5V181.5L87.25 156.5L144 181.5V277.5H175V137.182Z" fill="#69686E"/>
<rect x="217.5" y="165.5" width="164" height="86" stroke="#EF7A1B" stroke-width="3"/>
<path d="M349.5 166.5V251M317 166.5V251M284 166.5V251M249.5 166.5V251" stroke="#EF7A1B" stroke-width="3"/>
<path d="M268 258H332.5" stroke="#EF7A1B" stroke-width="3"/>
<path d="M265 263H335" stroke="#EF7A1B" stroke-width="3"/>
<path d="M262 268H338" stroke="#EF7A1B" stroke-width="3"/>
<path d="M259 273H343" stroke="#EF7A1B" stroke-width="3"/>
<path d="M139 277V189H36V277" stroke="#69686E" stroke-width="3"/>
<path d="M134.269 183H39.7314L87 162.093L134.269 183Z" stroke="#69686E" stroke-width="2"/>
</g>
<defs>
<clipPath id="clip0_2091_15">
<rect width="423" height="278" fill="white"/>
</clipPath>
</defs>
</svg>
